<svg xmlns="http://www.w3.org/2000/svg" viewBox="0 0 100 100" preserveAspectRatio="none">
  <title>Palpagos map edge mask</title>
  <polygon points="48.5,1 96.7,7.6 96.7,47.1 77.8,74.9 71.5,84.1 48.6,98.8 1.1,98.8 1.1,62.7 31.7,25.1 34,7.9" fill="white" fill-opacity="0.0051"/>
  <polygon points="48.5,1.07 96.63,7.67 96.63,47.061 77.748,74.843 71.443,84.043 48.574,98.73 1.17,98.73 1.17,62.739 31.757,25.152 34.061,7.952" fill="white" fill-opacity="0.0147"/>
  <polygon points="48.5,1.139 96.561,7.739 96.561,47.022 77.696,74.787 71.387,83.987 48.548,98.661 1.239,98.661 1.239,62.778 31.813,25.204 34.122,8.004" fill="white" fill-opacity="0.0238"/>
  <polygon points="48.5,1.209 96.491,7.809 96.491,46.983 77.643,74.73 71.33,83.93 48.522,98.591 1.309,98.591 1.309,62.817 31.87,25.257 34.183,8.057" fill="white" fill-opacity="0.0325"/>
  <polygon points="48.5,1.278 96.422,7.878 96.422,46.943 77.591,74.674 71.274,83.874 48.496,98.522 1.378,98.522 1.378,62.857 31.926,25.309 34.243,8.109" fill="white" fill-opacity="0.0411"/>
  <polygon points="48.5,1.348 96.352,7.948 96.352,46.904 77.539,74.617 71.217,83.817 48.47,98.452 1.448,98.452 1.448,62.896 31.983,25.361 34.304,8.161" fill="white" fill-opacity="0.0497"/>
  <polygon points="48.5,1.417 96.283,8.017 96.283,46.865 77.487,74.561 71.161,83.761 48.443,98.383 1.517,98.383 1.517,62.935 32.039,25.413 34.365,8.213" fill="white" fill-opacity="0.0585"/>
  <polygon points="48.5,1.487 96.213,8.087 96.213,46.826 77.435,74.504 71.104,83.704 48.417,98.313 1.587,98.313 1.587,62.974 32.096,25.465 34.426,8.265" fill="white" fill-opacity="0.0676"/>
  <polygon points="48.5,1.557 96.143,8.157 96.143,46.787 77.383,74.448 71.048,83.648 48.391,98.243 1.657,98.243 1.657,63.013 32.152,25.517 34.487,8.317" fill="white" fill-opacity="0.0771"/>
  <polygon points="48.5,1.626 96.074,8.226 96.074,46.748 77.33,74.391 70.991,83.591 48.365,98.174 1.726,98.174 1.726,63.052 32.209,25.57 34.548,8.37" fill="white" fill-opacity="0.0874"/>
  <polygon points="48.5,1.696 96.004,8.296 96.004,46.709 77.278,74.335 70.935,83.535 48.339,98.104 1.796,98.104 1.796,63.091 32.265,25.622 34.609,8.422" fill="white" fill-opacity="0.0986"/>
  <polygon points="48.5,1.765 95.935,8.365 95.935,46.67 77.226,74.278 70.878,83.478 48.313,98.035 1.865,98.035 1.865,63.13 32.322,25.674 34.67,8.474" fill="white" fill-opacity="0.1109"/>
  <polygon points="48.5,1.835 95.865,8.435 95.865,46.63 77.174,74.222 70.822,83.422 48.287,97.965 1.935,97.965 1.935,63.17 32.378,25.726 34.73,8.526" fill="white" fill-opacity="0.1247"/>
  <polygon points="48.5,1.904 95.796,8.504 95.796,46.591 77.122,74.165 70.765,83.365 48.261,97.896 2.004,97.896 2.004,63.209 32.435,25.778 34.791,8.578" fill="white" fill-opacity="0.1405"/>
  <polygon points="48.5,1.974 95.726,8.574 95.726,46.552 77.07,74.109 70.709,83.309 48.235,97.826 2.074,97.826 2.074,63.248 32.491,25.83 34.852,8.63" fill="white" fill-opacity="0.1588"/>
  <polygon points="48.5,2.043 95.657,8.643 95.657,46.513 77.017,74.052 70.652,83.252 48.209,97.757 2.143,97.757 2.143,63.287 32.548,25.883 34.913,8.683" fill="white" fill-opacity="0.1806"/>
  <polygon points="48.5,2.113 95.587,8.713 95.587,46.474 76.965,73.996 70.596,83.196 48.183,97.687 2.213,97.687 2.213,63.326 32.604,25.935 34.974,8.735" fill="white" fill-opacity="0.2070"/>
  <polygon points="48.5,2.183 95.517,8.783 95.517,46.435 76.913,73.939 70.539,83.139 48.157,97.617 2.283,97.617 2.283,63.365 32.661,25.987 35.035,8.787" fill="white" fill-opacity="0.2400"/>
  <polygon points="48.5,2.252 95.448,8.852 95.448,46.396 76.861,73.883 70.483,83.083 48.13,97.548 2.352,97.548 2.352,63.404 32.717,26.039 35.096,8.839" fill="white" fill-opacity="0.2824"/>
  <polygon points="48.5,2.322 95.378,8.922 95.378,46.357 76.809,73.826 70.426,83.026 48.104,97.478 2.422,97.478 2.422,63.443 32.774,26.091 35.157,8.891" fill="white" fill-opacity="0.3394"/>
  <polygon points="48.5,2.391 95.309,8.991 95.309,46.317 76.757,73.77 70.37,82.97 48.078,97.409 2.491,97.409 2.491,63.483 32.83,26.143 35.217,8.943" fill="white" fill-opacity="0.4199"/>
  <polygon points="48.5,2.461 95.239,9.061 95.239,46.278 76.704,73.713 70.313,82.913 48.052,97.339 2.561,97.339 2.561,63.522 32.887,26.196 35.278,8.996" fill="white" fill-opacity="0.5421"/>
  <polygon points="48.5,2.53 95.17,9.13 95.17,46.239 76.652,73.657 70.257,82.857 48.026,97.27 2.63,97.27 2.63,63.561 32.943,26.248 35.339,9.048" fill="white" fill-opacity="0.7426"/>
  <polygon points="48.5,2.6 95.1,9.2 95.1,46.2 76.6,73.6 70.2,82.8 48,97.2 2.7,97.2 2.7,63.6 33,26.3 35.4,9.1" fill="white"/>
</svg>
